{"title":"Lovely Molly 2011 DVDrip English Klam","uid":8153095,"size":1333239432,"categoryP":"video","categoryS":"movies","magnet":"?xt=urn:btih:9600b324f98456c11755a4a8aafdfa283cb0211b&amp;dn=Lovely+Molly+2011+DVDrip+English+Klam&amp;tr=udp%3A%2F%2Ftracker.openbittorrent.com%3A80&amp;tr=udp%3A%2F%2Fopen.demonii.com%3A1337&amp;tr=udp%3A%2F%2Ftracker.coppersurfer.tk%3A6969&amp;tr=udp%3A%2F%2Fexodus.desync.com%3A6969","seeders":7,"leechers":3,"uploader":"Klambake","files":-1,"time":1361099380,"description":"With: Gretchen Lodge, Johnny Lewis and Alexandra Holden\n\nDe pasgetrouwde Molly Reynolds keert terug naar het verlaten huis waar ze geboren is. Vreselijke herinneringen aan haar dramatische kindertijd dringen haar nieuwe leven langzaam binnen. Al snel gaat Molly's geestelijke gezondheid achteruit en het lijkt ze een psychose te hebben. Of zou ze bezeten zijn?.\n\nNewlywed Molly moves into her deceased father's house in the countryside, where painful memories soon begin to haunt her. \n &lt;a href=&quot;\nhttp://www.imdb.com/title/tt1707392&quot; rel=&quot;nofollow&quot; target=&quot;_NEW&quot;&gt;\nhttp://www.imdb.com/title/tt1707392&lt;/a&gt;\t\n\n------------------------ Dutch Friends ------------------------\n---------------------------------------------------------------\n- Bezoek ook eens mijn vrienden op: &lt;a href=&quot; http://www.Film-Test.nl&quot; rel=&quot;nofollow&quot; target=&quot;_NEW&quot;&gt; http://www.Film-Test.nl&lt;/a&gt; --\n----- voor mijn Nederlandse Sync. ondertitels ---- en meer ----\n------- http://www.Film-Test.nl ---- Over Films en meer -------\n---------------------------------------------------------------\n\nGeneral:\n\nComplete name                    : Lovely MollyLovely Molly.avi\nFormat                           : AVI\nFormat/Info                      : Audio Video Interleave\nFile size                        : 1.24 GiB\nDuration                         : 1h 36mn\nOverall bit rate                 : 1 847 Kbps\n\nVideo:\n\nFormat                           : MPEG-4 Visual\nFormat profile                   : Simple@L3\nFormat settings, BVOP            : No\nFormat settings, QPel            : No\nFormat settings, GMC             : No warppoints\nFormat settings, Matrix          : Default (H.263)\nCodec ID                         : XVID\nCodec ID/Hint                    : XviD\nDuration                         : 1h 36mn\nBit rate                         : 1 388 Kbps\nWidth                            : 704 pixels\nHeight                           : 396 pixels\nDisplay aspect ratio             : 16:9\nFrame rate                       : 25.000 fps\nColor space                      : YUV\nChroma subsampling               : 4:2:0\nBit depth                        : 8 bits\nScan type                        : Progressive\nCompression mode                 : Lossy\nBits/(Pixel*Frame)               : 0.199\nStream size                      : 954 MiB (75%)\nWriting library                  : XviD 1.1.2 (UTC 2006-11-01)\n\nAudio:\n\nFormat                           : AC-3\nFormat/Info                      : Audio Coding 3\nMode extension                   : CM (complete main)\nCodec ID                         : 2000\nDuration                         : 1h 36mn\nBit rate mode                    : Constant\nBit rate                         : 448 Kbps\nChannel(s)                       : 6 channels\nChannel positions                : Front: L C R, Side: L R, LFE\nSampling rate                    : 48.0 KHz\nBit depth                        : 16 bits\nCompression mode                 : Lossy\nStream size                      : 308 MiB (24%)\nAlignment                        : Aligned on interleaves\nInterleave, duration             : 32 ms (0.80 video frame)\nInterleave, preload duration     : 256 ms","torrent":{"xt":"urn:btih:9600b324f98456c11755a4a8aafdfa283cb0211b","amp;dn":"Lovely+Molly+2011+DVDrip+English+Klam","amp;tr":["udp%3A%2F%2Ftracker.openbittorrent.com%3A80","udp%3A%2F%2Fopen.demonii.com%3A1337","udp%3A%2F%2Ftracker.coppersurfer.tk%3A6969","udp%3A%2F%2Fexodus.desync.com%3A6969"],"infoHash":"9600b324f98456c11755a4a8aafdfa283cb0211b","infoHashBuffer":{"type":"Buffer","data":[150,0,179,36,249,132,86,193,23,85,164,168,170,253,250,40,60,176,33,27]},"announce":[],"urlList":[]}}